<?xml version="1.0" standalone="no"?>
<!DOCTYPE svg PUBLIC "-//W3C//DTD SVG 20010904//EN"
 "http://www.w3.org/TR/2001/REC-SVG-20010904/DTD/svg10.dtd">
<svg version="1.0" xmlns="http://www.w3.org/2000/svg"
 width="4096.000000pt" height="4096.000000pt" viewBox="0 0 4096.000000 4096.000000"
 preserveAspectRatio="xMidYMid meet">

<g transform="translate(0.000000,4096.000000) scale(0.100000,-0.100000)"
fill="#7E98D2" stroke="none">
<path d="M21495 28254 c-246 -10 -526 -27 -565 -34 -25 -5 -99 -14 -165 -20
-66 -6 -145 -18 -176 -26 -31 -8 -74 -14 -95 -14 -22 0 -68 -7 -104 -15 -36
-9 -98 -20 -139 -25 -40 -5 -92 -16 -115 -24 -22 -8 -66 -17 -97 -20 -31 -3
-69 -13 -85 -21 -16 -8 -40 -15 -54 -15 -14 0 -54 -8 -90 -19 -93 -28 -178
-51 -230 -62 -25 -5 -61 -15 -80 -23 -19 -7 -56 -16 -82 -20 -26 -4 -50 -11
-53 -16 -3 -4 -29 -14 -57 -20 -29 -7 -57 -16 -63 -20 -5 -4 -21 -11 -35 -15
-14 -4 -38 -13 -55 -20 -16 -8 -84 -35 -150 -61 -66 -25 -138 -54 -160 -64
-22 -10 -49 -20 -61 -24 -60 -18 -637 -317 -731 -378 -24 -16 -45 -28 -47 -28
-3 0 -31 -17 -63 -39 -32 -21 -78 -52 -103 -68 -123 -81 -306 -207 -391 -270
-176 -130 -324 -243 -380 -290 -31 -27 -110 -91 -176 -144 -152 -123 -853
-834 -956 -970 -40 -53 -121 -148 -180 -210 -105 -113 -121 -132 -207 -249
-25 -34 -68 -89 -96 -123 -66 -81 -113 -146 -216 -297 -46 -69 -96 -142 -111
-163 -14 -21 -33 -60 -42 -87 -9 -26 -23 -51 -31 -54 -34 -13 -107 40 -273
197 -121 115 -165 150 -396 308 -135 93 -453 247 -620 301 -216 70 -327 94
-545 119 -136 15 -504 6 -575 -14 -27 -8 -76 -18 -108 -21 -32 -4 -72 -13 -87
-21 -16 -8 -45 -15 -65 -15 -20 0 -52 -7 -73 -16 -20 -9 -57 -22 -82 -29 -98
-29 -218 -83 -365 -165 -197 -109 -503 -361 -634 -522 -25 -31 -81 -99 -123
-151 -43 -52 -78 -98 -78 -102 0 -3 -30 -52 -67 -108 -38 -56 -73 -111 -79
-122 -6 -11 -29 -53 -52 -93 -23 -41 -42 -76 -42 -78 0 -3 -15 -37 -34 -77
-49 -105 -73 -159 -81 -187 -4 -14 -11 -29 -15 -35 -4 -5 -15 -37 -24 -70 -9
-33 -25 -91 -36 -130 -85 -291 -111 -455 -118 -737 l-5 -218 -59 0 c-37 0 -72
-7 -96 -19 -20 -10 -50 -21 -67 -25 -38 -8 -72 -24 -194 -87 -31 -16 -59 -29
-64 -29 -5 0 -31 -16 -57 -35 -26 -19 -51 -35 -54 -35 -20 0 -333 -250 -396
-316 -94 -98 -280 -337 -280 -359 0 -3 -12 -24 -27 -48 -72 -111 -169 -314
-201 -417 -84 -274 -96 -352 -96 -580 1 -105 6 -207 13 -235 6 -27 15 -79 20
-115 15 -111 77 -342 101 -375 4 -5 13 -26 19 -46 7 -20 27 -68 46 -105 19
-38 35 -73 35 -77 0 -4 20 -39 45 -77 25 -38 45 -72 45 -75 0 -3 40 -59 89
-123 115 -152 377 -413 494 -492 48 -33 90 -60 93 -60 2 0 23 -12 47 -27 46
-30 187 -103 200 -103 4 0 27 -9 51 -20 38 -17 127 -45 227 -70 108 -28 589
-30 7074 -29 3663 1 6739 4 6835 8 l175 6 15 33 c20 44 54 41 58 -5 l3 -33
377 -2 c207 -2 402 -2 432 -2 508 3 707 8 718 17 9 7 26 6 55 -4 59 -20 3530
-21 3564 -1 13 7 26 28 31 50 5 20 14 57 21 82 6 25 18 81 26 125 7 44 18 105
24 135 21 105 50 315 57 400 3 47 10 101 15 120 21 81 42 492 42 820 0 297
-22 755 -38 779 -2 4 -9 50 -15 102 -11 96 -28 214 -55 374 -9 50 -20 122 -26
160 -9 68 -21 126 -55 270 -9 39 -20 93 -26 120 -5 28 -13 55 -18 60 -4 6 -15
37 -24 70 -38 142 -47 172 -61 202 -8 17 -15 37 -15 45 0 18 -45 151 -65 195
-8 17 -15 39 -15 50 -1 10 -9 36 -20 58 -11 22 -19 48 -20 58 0 10 -7 34 -16
55 -9 20 -22 57 -29 82 -32 108 -70 209 -100 265 -18 33 -36 71 -40 85 -4 14
-16 36 -25 50 -10 14 -34 75 -53 135 -84 257 -107 317 -134 350 -15 18 -34 34
-41 34 -12 1 -72 120 -72 145 0 20 -40 103 -81 166 -19 30 -51 87 -70 125 -20
39 -52 96 -72 127 -20 31 -37 60 -37 63 0 3 -17 29 -37 58 -100 142 -113 161
-113 169 0 4 -34 57 -75 118 -41 61 -75 112 -75 115 0 8 -70 107 -95 135 -13
14 -49 63 -81 110 -31 47 -74 103 -93 126 -20 22 -63 74 -96 114 -33 41 -87
104 -120 141 -33 37 -100 113 -150 170 -151 172 -481 497 -635 624 -151 125
-392 316 -435 345 -27 18 -75 55 -106 82 -31 26 -61 48 -66 48 -4 0 -26 15
-47 33 -70 57 -199 145 -286 193 -47 26 -92 53 -100 60 -8 7 -60 36 -115 64
-149 77 -216 113 -259 143 -21 15 -43 27 -49 27 -6 0 -25 11 -43 25 -33 25
-383 203 -479 244 -27 12 -67 30 -87 41 -20 11 -44 20 -54 20 -9 0 -33 8 -53
19 -121 63 -274 128 -366 156 -49 15 -109 36 -133 46 -23 11 -48 19 -55 19 -6
0 -34 9 -62 20 -27 10 -81 31 -120 45 -38 15 -84 33 -102 41 -17 8 -42 14 -56
14 -14 0 -44 9 -68 20 -24 11 -55 20 -69 20 -14 0 -43 9 -65 20 -22 11 -49 20
-60 20 -11 0 -38 9 -60 20 -22 11 -57 19 -78 20 -21 0 -50 6 -65 14 -15 8 -50
17 -77 21 -28 4 -86 16 -130 26 -44 10 -102 19 -130 19 -27 0 -63 7 -79 15
-15 8 -45 15 -65 15 -20 0 -63 7 -96 15 -33 8 -77 14 -97 15 -21 0 -57 4 -80
10 -105 23 -219 43 -298 51 -47 4 -130 15 -185 23 -123 17 -690 37 -870 30z
m-8236 -3474 c31 -5 97 -17 146 -26 50 -9 113 -20 140 -24 60 -10 236 -66 325
-105 131 -56 146 -62 205 -85 33 -13 69 -32 81 -42 11 -10 25 -18 30 -18 6 0
21 -11 34 -25 13 -13 44 -32 69 -42 26 -9 78 -45 120 -82 86 -77 368 -359 460
-460 35 -38 78 -77 96 -85 60 -29 138 -15 175 29 7 9 30 23 49 31 20 8 54 32
76 53 22 22 51 42 65 46 14 4 36 17 50 30 32 28 323 174 415 208 96 35 204 67
229 67 12 0 65 9 119 20 112 23 389 28 493 10 310 -55 352 -68 521 -153 194
-98 218 -113 273 -162 19 -18 51 -41 70 -51 53 -28 338 -313 345 -345 3 -14
21 -41 40 -59 19 -19 35 -39 35 -45 0 -7 9 -20 20 -30 11 -10 20 -23 20 -30 0
-7 9 -20 20 -30 11 -10 20 -24 20 -32 0 -7 26 -64 58 -126 32 -61 63 -132 69
-157 7 -25 18 -65 26 -90 19 -57 34 -120 48 -190 13 -68 47 -191 54 -199 3 -2
29 18 58 46 28 28 63 54 77 58 14 4 41 22 60 40 19 19 47 37 62 40 14 4 36 18
49 31 12 13 28 24 34 24 6 0 53 21 105 46 52 26 113 53 134 60 22 8 44 18 50
23 6 5 27 12 46 16 19 4 65 16 102 27 60 18 89 19 275 16 168 -3 215 -7 245
-21 21 -9 54 -17 75 -17 21 0 55 -9 76 -20 20 -11 47 -20 59 -20 13 0 32 -6
44 -13 12 -6 68 -36 125 -65 79 -41 122 -71 179 -127 41 -40 91 -81 110 -91
48 -25 240 -214 240 -236 0 -10 12 -32 28 -50 15 -18 36 -49 46 -68 10 -19 29
-46 42 -60 12 -14 26 -37 29 -52 4 -15 13 -32 21 -39 8 -6 14 -18 14 -26 0 -7
12 -42 27 -76 78 -184 94 -225 99 -262 3 -22 14 -66 25 -98 10 -31 19 -68 19
-82 l0 -25 38 19 c20 10 46 28 56 40 11 12 24 21 30 21 6 0 25 7 41 16 31 16
157 57 280 89 86 23 239 30 308 15 29 -7 95 -16 147 -21 163 -14 224 -31 352
-95 26 -13 53 -24 61 -24 7 0 26 -13 42 -30 16 -16 34 -30 41 -30 6 0 17 -7
24 -16 8 -8 30 -22 49 -30 63 -26 401 -374 401 -413 0 -5 7 -14 15 -21 8 -7
27 -37 41 -69 15 -31 35 -65 44 -76 10 -11 20 -29 23 -40 3 -11 21 -57 40
-103 20 -46 39 -97 43 -115 3 -18 13 -45 21 -61 33 -64 47 -376 26 -561 -14
-127 -65 -290 -133 -425 -15 -30 -31 -66 -35 -80 -4 -14 -21 -40 -36 -58 -16
-18 -29 -41 -29 -50 0 -10 -15 -33 -33 -51 -19 -17 -43 -51 -55 -74 -26 -52
-252 -278 -308 -309 -63 -35 -103 -60 -149 -94 -23 -18 -53 -35 -66 -39 -12
-4 -43 -20 -68 -35 -52 -31 -148 -70 -233 -94 -51 -15 -551 -16 -5449 -16
-3299 0 -5414 4 -5448 9 -31 5 -108 19 -171 30 -63 11 -133 23 -155 26 -21 4
-51 13 -65 20 -14 7 -41 16 -60 20 -19 4 -46 16 -59 26 -13 11 -32 19 -41 19
-10 0 -23 7 -30 15 -7 9 -29 23 -49 32 -20 9 -55 29 -78 45 -23 15 -45 28 -48
28 -4 0 -23 14 -42 30 -18 17 -41 30 -51 30 -18 0 -322 298 -322 316 0 6 -9
19 -20 29 -11 10 -20 24 -20 30 0 7 -7 18 -15 25 -27 22 -154 291 -180 380
-13 47 -31 103 -39 125 -8 22 -15 52 -16 66 0 14 -9 61 -20 104 -11 43 -20 98
-20 122 0 29 -7 54 -21 73 -19 24 -21 38 -16 85 3 32 13 65 21 74 9 10 16 32
16 50 0 17 9 57 20 88 11 32 20 69 20 83 0 36 94 307 114 328 9 10 16 22 16
26 0 4 9 19 20 33 11 14 20 33 20 41 0 8 27 43 60 78 33 34 60 70 60 80 0 20
157 184 175 184 6 0 24 14 40 30 16 17 34 30 40 30 6 0 22 12 36 26 13 14 42
34 64 44 22 10 51 30 64 44 14 14 32 26 41 26 10 0 28 8 41 19 13 10 35 22 49
26 14 4 32 13 40 20 8 7 26 16 40 20 14 4 32 13 40 20 8 7 33 17 55 23 22 6
58 17 80 26 22 8 58 15 80 16 22 0 74 9 115 20 54 14 108 20 193 20 l117 0 0
73 c0 39 -9 109 -20 155 -17 72 -20 118 -20 329 0 251 -1 245 50 518 11 58 25
112 52 210 47 165 65 217 116 345 30 74 60 149 66 165 6 17 25 49 41 72 51 73
85 130 85 145 0 8 14 27 30 43 17 16 30 33 30 39 0 14 362 376 375 376 6 0 29
18 50 40 21 22 47 40 57 40 9 0 33 14 51 30 19 17 42 30 50 30 9 0 31 13 49
28 18 16 53 34 78 41 25 7 66 24 92 37 85 43 340 121 463 143 66 11 143 24
170 29 70 13 298 14 364 2z"/>
<path d="M15495 17801 c-35 -21 -158 -148 -200 -206 -16 -22 -59 -74 -95 -115
-36 -41 -73 -87 -83 -102 -9 -14 -56 -71 -104 -125 -105 -117 -159 -187 -207
-267 -33 -55 -36 -66 -36 -136 l0 -76 58 -57 c69 -68 107 -79 177 -53 35 14
74 48 174 154 71 75 146 160 166 187 21 28 56 71 79 97 23 25 55 65 71 88 17
23 64 81 105 128 126 146 158 196 175 271 14 66 -47 181 -116 217 -40 20 -127
18 -164 -5z"/>
<path d="M19199 17770 c-37 -20 -85 -69 -160 -166 -41 -54 -98 -125 -264 -329
-151 -186 -226 -276 -296 -356 -42 -48 -89 -104 -105 -125 -16 -22 -58 -73
-94 -114 -36 -41 -77 -89 -91 -106 -53 -68 -236 -283 -298 -351 -98 -106 -123
-139 -158 -211 -51 -102 -41 -163 37 -236 l49 -46 73 0 c40 1 82 6 94 13 65
38 154 130 294 303 30 38 73 86 95 109 22 22 44 47 50 56 22 35 294 357 403
478 28 32 52 61 52 66 0 4 21 32 48 60 26 29 79 89 117 135 39 45 90 105 116
134 25 28 52 63 61 77 9 14 56 72 105 128 102 116 139 178 149 248 12 91 -23
162 -110 224 -47 35 -112 38 -167 9z"/>
<path d="M24467 17733 c-28 -32 -95 -168 -102 -209 -4 -21 -13 -50 -20 -64 -7
-14 -21 -67 -30 -118 -26 -134 -13 -184 64 -263 49 -51 62 -59 94 -59 48 0
102 28 148 77 59 62 72 96 65 172 -9 97 -21 163 -33 186 -6 11 -19 45 -29 75
-9 30 -38 92 -63 138 -46 85 -64 97 -94 65z"/>
<path d="M10327 17688 c-13 -18 -34 -58 -45 -88 -60 -155 -92 -240 -92 -248 0
-5 -7 -24 -16 -42 -13 -24 -15 -47 -10 -92 7 -71 28 -108 97 -173 50 -47 51
-47 110 -43 53 4 64 9 100 44 63 61 79 100 79 194 0 90 -33 203 -96 330 -19
38 -34 74 -34 80 0 25 -32 70 -50 70 -10 0 -30 -15 -43 -32z"/>
<path d="M22084 17319 c-36 -35 -73 -77 -81 -93 -9 -16 -44 -64 -79 -105 -35
-42 -85 -102 -111 -134 -27 -31 -64 -76 -84 -100 -20 -23 -42 -53 -49 -66 -15
-29 -153 -193 -237 -282 -35 -36 -63 -69 -63 -74 0 -5 -6 -16 -14 -24 -7 -9
-28 -42 -45 -73 -27 -51 -31 -66 -31 -138 l0 -81 46 -49 47 -50 72 0 c70 0 75
2 124 40 28 22 93 91 144 152 50 62 131 152 179 200 48 48 99 109 114 135 15
27 50 73 78 103 28 31 79 92 113 135 33 44 73 91 87 104 14 14 26 28 26 32 0
4 15 34 34 66 66 114 57 239 -24 318 -38 37 -45 40 -110 43 l-69 4 -67 -63z"/>
<path d="M12390 17251 c-77 -24 -169 -111 -310 -296 -14 -18 -83 -101 -155
-185 -71 -83 -146 -170 -165 -193 -19 -23 -118 -138 -219 -257 -101 -118 -213
-251 -250 -294 -36 -43 -96 -111 -132 -150 -36 -39 -73 -84 -83 -100 -10 -16
-35 -48 -56 -70 -62 -68 -90 -134 -90 -214 0 -67 2 -71 40 -115 31 -35 53 -49
94 -61 30 -9 63 -16 74 -16 68 0 185 93 326 261 45 53 122 141 171 196 50 56
117 133 150 172 143 168 216 250 306 345 53 56 123 137 156 182 34 44 83 105
111 135 108 118 223 272 242 322 29 75 26 152 -6 213 -35 67 -51 83 -109 110
-54 26 -57 26 -95 15z"/>
<path d="M28651 17174 c-17 -26 -36 -63 -42 -83 -6 -20 -15 -41 -20 -46 -4 -6
-13 -33 -20 -60 -6 -28 -15 -54 -20 -60 -4 -5 -17 -48 -29 -95 -17 -64 -21
-102 -17 -153 7 -78 26 -115 92 -176 41 -38 49 -41 101 -41 54 0 57 2 114 56
32 30 61 67 65 82 4 15 14 35 22 44 12 13 14 30 9 70 -12 109 -19 134 -41 158
-12 14 -26 39 -29 55 -21 91 -115 284 -143 293 -7 2 -26 -18 -42 -44z"/>
<path d="M26163 16881 c-40 -29 -107 -103 -208 -230 -27 -35 -62 -77 -76 -95
-14 -17 -33 -44 -42 -61 -8 -16 -46 -64 -84 -105 -38 -41 -80 -91 -93 -110
-14 -19 -63 -79 -110 -133 -47 -53 -105 -121 -128 -150 -24 -28 -77 -90 -118
-137 -41 -47 -158 -184 -261 -305 -103 -121 -210 -247 -239 -280 -30 -33 -104
-119 -166 -191 -62 -72 -160 -186 -218 -253 -58 -67 -120 -141 -138 -164 -19
-23 -76 -91 -128 -152 -136 -160 -142 -168 -150 -201 -4 -16 -13 -38 -20 -49
-21 -30 -17 -102 8 -144 75 -126 183 -165 279 -102 47 32 271 266 329 346 19
26 64 80 100 120 36 40 90 103 120 139 30 37 80 95 110 131 155 180 261 306
320 380 25 31 68 82 95 114 28 32 77 91 110 131 33 39 83 98 110 130 28 31 73
85 100 120 28 34 84 99 126 144 42 44 84 95 93 113 9 17 65 83 124 145 60 62
127 140 149 174 23 33 76 93 119 133 73 68 106 116 155 220 17 36 20 58 17
135 -3 83 -6 96 -31 129 -36 48 -113 87 -170 87 -33 0 -54 -8 -84 -29z"/>
<path d="M15650 16160 c-50 -26 -266 -258 -358 -383 -12 -17 -46 -57 -75 -88
-28 -32 -73 -84 -99 -116 -85 -104 -285 -337 -378 -439 -36 -40 -89 -101 -118
-136 -147 -177 -187 -224 -298 -352 -65 -76 -143 -168 -173 -205 -30 -36 -84
-98 -120 -138 -36 -39 -83 -93 -104 -120 -20 -26 -88 -106 -150 -176 -61 -71
-119 -140 -128 -153 -9 -13 -50 -64 -92 -112 -182 -210 -298 -344 -382 -442
-49 -58 -114 -134 -145 -170 -205 -239 -228 -331 -111 -453 51 -54 81 -67 153
-67 l62 0 136 138 c74 75 174 184 222 242 111 133 209 246 292 336 36 38 80
91 98 116 45 62 186 232 283 340 117 130 172 198 194 239 11 20 77 95 146 165
69 71 125 133 125 137 0 4 30 41 68 81 37 41 115 131 174 202 163 196 254 303
317 370 31 33 88 100 126 149 39 49 108 133 155 187 47 54 103 121 125 149 22
28 72 85 111 127 71 77 179 221 208 277 35 67 8 203 -50 254 -69 61 -148 76
-214 41z"/>
<path d="M23113 15881 c-38 -28 -201 -210 -235 -263 -10 -15 -59 -76 -110
-136 -151 -177 -273 -324 -315 -377 -22 -27 -78 -91 -124 -141 -46 -51 -93
-106 -104 -123 -11 -17 -47 -63 -80 -103 -109 -132 -134 -173 -141 -230 -10
-82 8 -127 70 -187 53 -50 56 -51 114 -51 73 0 103 20 212 139 41 45 114 123
161 174 47 51 103 117 126 147 22 30 57 72 77 93 20 21 36 42 36 47 0 4 26 38
58 74 31 36 86 102 122 147 71 89 144 174 263 309 42 49 77 93 77 98 0 5 6 15
14 21 53 44 71 165 41 267 -17 57 -42 85 -99 108 -61 25 -116 21 -163 -13z"/>
<path d="M19846 15517 c-45 -45 -102 -109 -129 -142 -103 -130 -163 -203 -216
-262 -94 -105 -161 -184 -474 -558 -83 -99 -175 -208 -206 -242 -31 -34 -74
-85 -96 -113 -22 -28 -76 -91 -120 -140 -44 -50 -106 -120 -138 -157 -31 -38
-86 -102 -122 -143 -115 -133 -174 -203 -242 -285 -37 -44 -94 -110 -127 -147
-34 -36 -90 -101 -126 -143 -36 -42 -104 -118 -151 -168 -48 -51 -93 -104
-100 -119 -8 -14 -63 -81 -124 -147 -60 -66 -131 -146 -157 -178 -26 -32 -60
-74 -76 -93 -16 -19 -48 -65 -71 -101 -37 -59 -41 -73 -41 -129 l0 -63 68 -69
69 -68 73 0 73 0 125 123 c68 67 166 174 218 237 107 131 188 224 311 358 47
51 112 128 143 170 32 42 74 93 94 111 20 19 36 39 36 44 0 5 26 38 58 74 86
97 169 191 247 283 39 45 95 110 125 145 30 35 84 98 120 140 36 42 99 114
140 159 41 46 95 109 120 141 25 32 70 86 100 120 30 35 84 98 120 140 36 43
85 101 110 130 25 29 70 83 100 120 74 91 193 229 251 290 25 28 48 55 50 61
2 7 40 53 84 104 196 224 225 270 225 351 0 95 -47 189 -114 230 -21 13 -50
19 -90 19 l-60 0 -80 -83z"/>
<path d="M29503 15279 c-55 -32 -121 -99 -200 -203 -26 -33 -125 -153 -220
-266 -95 -113 -182 -218 -195 -233 -13 -15 -50 -60 -83 -100 -34 -40 -119
-142 -190 -227 -71 -85 -184 -218 -250 -295 -66 -78 -178 -210 -250 -295 -183
-217 -251 -297 -309 -361 -28 -31 -86 -99 -128 -150 -151 -186 -242 -292 -299
-354 -33 -34 -59 -66 -59 -70 0 -7 -80 -104 -245 -295 -49 -58 -108 -127 -130
-155 -22 -27 -83 -98 -135 -156 -172 -191 -272 -318 -285 -360 -4 -13 -14 -33
-21 -44 -32 -46 -3 -134 68 -201 56 -54 77 -64 136 -64 38 0 58 6 88 29 77 57
305 304 535 581 36 43 85 101 110 128 24 27 67 78 94 113 28 35 86 102 130
149 45 47 94 105 109 130 16 25 66 86 111 135 46 50 114 129 151 176 69 87
115 140 342 399 67 77 122 145 122 150 0 5 44 56 98 112 132 140 269 297 317
368 36 53 165 206 315 376 30 35 80 92 110 129 30 36 87 101 125 144 39 43 88
103 110 132 22 29 68 85 102 125 90 104 123 172 123 249 0 77 -17 119 -67 167
-76 74 -147 85 -230 37z"/>
<path d="M12373 15092 c-13 -8 -93 -171 -93 -189 0 -7 -14 -33 -32 -58 -31
-44 -32 -47 -30 -145 4 -133 19 -182 79 -242 45 -46 50 -48 103 -48 60 0 80
10 143 69 74 69 80 105 46 264 -15 72 -36 130 -79 217 -65 130 -95 159 -137
132z"/>
<path d="M26645 15023 c-62 -110 -136 -331 -137 -408 -2 -98 16 -142 86 -212
68 -68 99 -78 154 -49 43 23 111 99 122 136 27 94 1 266 -59 387 -21 43 -46
96 -55 118 -37 88 -72 97 -111 28z"/>
<path d="M20587 14138 c-56 -91 -109 -215 -141 -328 -7 -25 -18 -56 -25 -67
-6 -12 -11 -59 -11 -105 0 -73 3 -88 26 -123 59 -89 111 -125 181 -125 27 0
45 10 85 48 70 65 88 107 88 213 0 91 -16 156 -78 324 -33 88 -81 176 -99 182
-7 3 -18 -6 -26 -19z"/>
<path d="M24647 12766 c-43 -19 -138 -118 -265 -276 -65 -80 -136 -167 -159
-195 -23 -27 -63 -75 -88 -105 -25 -30 -90 -107 -143 -170 -53 -63 -104 -125
-112 -136 -20 -28 -202 -242 -288 -338 -79 -88 -119 -137 -147 -175 -19 -27
-287 -349 -379 -456 -71 -83 -96 -139 -96 -217 0 -64 2 -70 38 -110 67 -75
108 -98 172 -98 47 0 64 5 97 29 46 33 190 188 229 246 14 22 52 67 83 101 53
57 144 164 310 368 41 50 108 128 148 174 40 45 73 87 73 92 0 6 36 49 80 96
44 47 92 104 107 127 14 23 49 67 77 98 28 30 78 89 111 130 33 41 91 111 130
156 38 45 99 117 134 158 87 103 151 231 151 301 0 29 -4 64 -10 78 -12 34
-77 104 -111 122 -34 17 -103 17 -142 0z"/>
<path d="M21918 12270 c-20 -11 -52 -38 -70 -61 -18 -23 -62 -74 -98 -114 -36
-40 -88 -101 -117 -136 -28 -35 -100 -122 -160 -193 -59 -70 -116 -140 -125
-153 -9 -14 -61 -75 -115 -136 -54 -61 -114 -132 -133 -158 -33 -46 -131 -161
-250 -295 -65 -74 -131 -153 -242 -289 -45 -55 -118 -142 -162 -192 -242 -277
-306 -359 -328 -417 -30 -85 -9 -145 82 -230 48 -45 51 -46 113 -46 55 0 70 4
103 28 52 38 174 168 309 327 61 71 135 157 166 190 31 33 62 71 69 84 11 21
122 154 326 391 35 41 101 121 147 177 45 56 118 142 162 191 44 50 99 114
122 144 23 29 77 92 120 140 43 47 92 104 108 126 17 22 70 84 118 138 48 53
95 111 104 128 24 47 43 125 43 181 0 63 -46 139 -105 172 -52 29 -134 30
-187 3z"/>
<path d="M14765 11786 c-63 -27 -81 -48 -306 -342 -30 -40 -71 -90 -90 -112
-19 -22 -65 -77 -104 -122 -38 -45 -92 -108 -120 -140 -27 -31 -77 -90 -110
-130 -33 -41 -89 -106 -125 -145 -78 -85 -216 -250 -302 -360 -34 -44 -78 -98
-97 -121 -20 -22 -63 -74 -96 -114 -33 -41 -91 -108 -130 -150 -98 -107 -155
-176 -201 -240 -35 -50 -39 -62 -42 -131 -3 -56 0 -84 12 -107 16 -30 81 -89
123 -111 31 -16 120 -14 158 5 33 15 233 210 277 270 34 44 104 127 181 211
37 41 67 81 67 89 0 8 24 41 53 73 28 32 67 76 85 97 19 22 59 66 90 100 31
33 87 96 124 140 37 43 111 131 165 194 54 63 125 149 157 190 33 41 89 107
125 146 36 39 102 113 146 164 44 51 96 111 116 134 50 57 101 133 123 183 14
32 17 59 15 120 -4 73 -7 83 -39 125 -53 70 -102 98 -170 98 -30 -1 -68 -7
-85 -14z"/>
<path d="M18604 10629 c-18 -5 -60 -40 -105 -88 -116 -124 -345 -386 -387
-443 -12 -18 -57 -72 -100 -122 -42 -50 -113 -134 -157 -186 -43 -52 -83 -98
-87 -101 -5 -3 -19 -19 -31 -36 -12 -17 -69 -86 -127 -153 -58 -67 -112 -133
-121 -147 -9 -13 -90 -108 -180 -210 -90 -102 -175 -199 -189 -217 -13 -17
-61 -74 -105 -126 -44 -52 -104 -122 -131 -155 -80 -94 -114 -163 -114 -230 0
-71 17 -110 71 -161 50 -48 106 -62 179 -45 35 8 60 27 137 103 52 51 129 134
171 183 42 50 103 120 136 156 63 68 112 126 378 451 42 51 114 134 160 185
94 104 181 205 265 308 31 39 79 95 107 126 71 79 128 148 147 178 9 14 70 85
135 156 198 216 234 277 234 396 0 48 -27 96 -82 147 -43 39 -130 53 -204 31z"/>
<path d="M24084 8649 c-37 -35 -109 -117 -162 -183 -52 -65 -113 -141 -136
-167 -23 -27 -58 -70 -79 -96 -58 -74 -165 -202 -221 -265 -28 -31 -75 -85
-104 -120 -128 -154 -529 -629 -607 -720 -109 -127 -116 -137 -136 -190 -11
-30 -19 -78 -19 -112 l0 -59 63 -64 64 -63 77 0 c72 0 81 2 117 31 42 33 249
257 312 336 21 26 88 108 150 181 62 72 157 186 212 253 55 66 127 152 160
191 33 39 74 90 92 113 17 23 64 78 105 123 40 44 93 105 118 137 25 31 74 89
110 129 88 99 153 182 196 252 34 56 35 63 32 136 -3 68 -6 80 -34 114 -62 77
-98 98 -174 102 l-69 4 -67 -63z"/>
</g>
</svg>
